<svg id="Layer_1" data-name="Layer 1" xmlns="http://www.w3.org/2000/svg" viewBox="0 0 2000 2000"><defs><style>.cls-1{fill:#ef372b;}.cls-2{fill:#ea413d;}.cls-3{fill:#ea7171;}.cls-4{fill:#edc0c0;}.cls-5{fill:#fefcfc;}.cls-6{fill:#fefbfb;}.cls-7{fill:#fce8e6;}.cls-8{fill:#fce9e7;}</style></defs><rect class="cls-1" x="1.54" width="1996.9" height="2000"/><rect class="cls-1" x="1998.44" width="3.1" height="2000"/><path class="cls-2" d="M1531.19,103.56C685.54,103.56,0,756.07,0,1561a1392.14,1392.14,0,0,0,70.7,439H1998.44V172.68C1851.14,127.8,1694.14,103.56,1531.19,103.56Z"/><path class="cls-2" d="M2000,173.15l-1.56-.47V2000H2000Z"/><path class="cls-3" d="M2000,559.63l-1.56-.32V2000H2000Z"/><path class="cls-3" d="M1720.33,531.28c-761.46,0-1378.75,616.29-1378.75,1376.53q0,46.47,3.07,92.19H1998.44V559.31A1387,1387,0,0,0,1720.33,531.28Z"/><path class="cls-4" d="M1998.44,928.87a1064.61,1064.61,0,0,0-131.22-8.11c-588.52,0-1066.4,482-1073.27,1079.24H1998.44Z"/><path class="cls-5" d="M181.51,118.72c-.08,7.31-1.71,14.39-3.32,21.47-.11.46-.22.91-.31,1.37-.44,2.23.07,2.74,2.18,2.1,5.5-1.67,11-3.29,16.45-5.1,1.74-.58,2.24.08,2.56,1.54.87,3.9-1,7.1-4.84,8-5.39,1.31-10.78,2.57-16.06,4.26a6.76,6.76,0,0,0-4.38,4.49c-5.55,18.3-13.12,35.82-20.9,53.26-1.63,3.66-8.32,5.17-11.55,2.68a2.47,2.47,0,0,1-.66-3.38c2.34-4.86,4.65-9.73,7-14.58C153,184,158.26,173.05,162,161.49c.26-.79.88-1.71.07-2.41s-1.51.13-2.21.42c-2.77,1.16-5.49,2.44-8.28,3.53s-3.87.3-4-2.64c-.19-3.54.87-4.71,4.21-5.95,4.32-1.59,8.5-3.54,12.75-5.32a1.82,1.82,0,0,0,1.06-1.33c2.77-8.83,5.83-17.58,6.88-26.85a15.74,15.74,0,0,0-.05-5.17c-.65-3.09-2.28-4.54-5.45-4.47-5.75.13-11,2.12-16,4.77a173.38,173.38,0,0,0-34,24.26c-4.22,3.79-8.37,7.66-12.62,11.43-2.31,2-4.36,2.09-6.91.38a11,11,0,0,1-1.56-1.25c-3.57-3.45-3.64-6,.1-9.24,17.3-14.87,36.23-27.09,57.76-35a54.9,54.9,0,0,1,13.82-3.2c8.28-.79,13.33,3.38,13.92,11.68C181.59,116.31,181.51,117.52,181.51,118.72Z"/><path class="cls-6" d="M207.86,161.35c-3.71-.2-6.78-.35-9.85-.55a6.52,6.52,0,0,0-2.57.24,2.12,2.12,0,0,0-1.57,2.1c0,1.07.69,1.56,1.75,1.85,5.81,1.58,11.67,1.16,17.54.54,1.19-.12,2.4-.15,3.6-.28a2.52,2.52,0,0,1,2.87,1.65c.57,1.4.6,2.72-.68,3.82-1.76,1.54-4,2.18-6.07,3s-4.21,1.34-5.95,2.8a8.78,8.78,0,0,0-1.74,1.91,2.21,2.21,0,0,0-.11,2.62,2.27,2.27,0,0,0,2.63.94A19.34,19.34,0,0,0,214,179c4.22-2.81,8.4-5.7,12.62-8.52a38.79,38.79,0,0,1,13.13-5.76,14.1,14.1,0,0,1,4-.25,3.51,3.51,0,0,1,3.31,2.46c.54,1.4.85,3.25,2.59,3.52s2.43-1.62,3.34-2.78c2.57-3.24,5-6.6,8.31-9.18,2.92-2.29,6.05-3.68,9.83-2.06a4.77,4.77,0,0,1,3.2,4.79c0,5.16-1.84,9.93-3,14.83a26.59,26.59,0,0,0-1,5.29c-.09,2.39.36,2.86,2.7,2.84a13.44,13.44,0,0,1,2.2,0,3.09,3.09,0,0,1,2.66,2.41,2.42,2.42,0,0,1-1.73,2.83c-3.73,1.61-7.58,1.84-11.21-.09-3.33-1.78-3.54-5.16-3.3-8.41.21-2.85.81-5.67,1.24-8.51.05-.32.12-.65.16-1,.1-.95.17-2-.81-2.49s-1.8.3-2.38,1c-3.39,4-6.34,8.41-9.31,12.77a23.41,23.41,0,0,1-5.32,5.91c-3.23,2.38-6.87,1.3-8.1-2.51-1.05-3.27-.29-6.46.31-9.67.23-1.23,1.42-2.74.07-3.69s-2.78.39-3.94,1.18c-6.5,4.44-13.27,8.52-19.38,13.53-3.09,2.53-6.57,4-10.71,3.65a8.24,8.24,0,0,1-6.85-11.9,21.69,21.69,0,0,1,4-5.47c.43-.46,1.24-.8.89-1.61s-1.12-.64-1.75-.72a25.72,25.72,0,0,1-9.93-2.9c-2.24-1.28-3.92-3-4.24-5.73-.39-3.35,1.28-6,4.82-7.47,4-1.71,8.29-2,12.58-2.07,6.69,0,13.4.29,19.9-1.77.9-.28,1,.24,1.19.85,1.26,4.73-1.5,8.73-6.41,9C214.19,161.49,210.71,161.35,207.86,161.35Z"/><path class="cls-6" d="M339.52,152.67a59.84,59.84,0,0,0,16.18-2c1.57-.38,1.95,0,1.86,1.58-.31,5.62-4.05,9-10,8.8-4.14-.15-8.28-.44-12.41-.66a13.58,13.58,0,0,0-2.21,0c-1.23.13-2.25.65-2.35,2s.82,2,2,2.3a101.34,101.34,0,0,0,12.22,2.23c1.73.2,3.45.43,5.17.68a3,3,0,0,1,2.69,2.09,3.2,3.2,0,0,1-1.14,3.42,11.74,11.74,0,0,1-5.77,2.6,11,11,0,0,0-5.39,2.49c-1.25,1.17-2.31,2.58-1.34,4.41s2.69,1.73,4.39,1.31a17.08,17.08,0,0,0,5.1-2.28,59.66,59.66,0,0,0,18.6-18.78,11.44,11.44,0,0,0,1.79-8.13A11.89,11.89,0,0,1,372,144.18c1.21-1.26,2.65-2.17,4.46-1.6a4.63,4.63,0,0,1,3.26,3.94,16.06,16.06,0,0,1-.39,5.75,5.51,5.51,0,0,0,2.25,6c2,1.48,4,2.93,5.86,4.53,2.21,1.9,2.25,3,.52,5.26-1.56,2.08-3.34,4-4.47,6.39-.79,1.67-1.44,3.35.23,4.94s3.4,1.27,5.18.36c.83-.43,1.62-.94,2.4-1.44a2.11,2.11,0,0,1,2.6-.2,2.78,2.78,0,0,1,1.23,2.58,5.34,5.34,0,0,1-1.43,3.12,13.14,13.14,0,0,1-15.14,3.3c-4.24-1.86-5.84-4.69-4.88-8.66a30.44,30.44,0,0,1,3.07-6.93c1.62-3,1.56-3.86-.42-5.09s-3.22-1-5.08,1.93c-3.06,4.78-6.12,9.54-10.35,13.45-6.46,6-13.81,9.78-22.82,9.78a10.59,10.59,0,0,1-8.4-3.55,7,7,0,0,1,.31-9.92,30.58,30.58,0,0,1,4.46-3.38c.49-.34,1.1-.66,1-1.37s-.8-1-1.45-1.18c-2.18-.64-4.37-1.25-6.53-1.93a13.77,13.77,0,0,1-4.09-2.09c-4.2-3.16-4.19-8.54.06-11.69,3.18-2.35,6.93-3.05,10.74-3.48C336.15,152.74,338.1,152.74,339.52,152.67Z"/><path class="cls-6" d="M304.64,159.63c3.72-14.5,8.18-28.72,13.1-42.81A103.59,103.59,0,0,1,322.87,104a7.38,7.38,0,0,1,9.29-3,3.35,3.35,0,0,1,1.78,3.7,17,17,0,0,1-1.57,4.72,469.58,469.58,0,0,0-19.24,53.33,65.72,65.72,0,0,0-2.8,13.67,14.26,14.26,0,0,0,.26,4.18c.62,2.75,2.66,3.94,5.43,3.15a21.82,21.82,0,0,0,3.13-1.31,2.7,2.7,0,0,1,3.32.45,3.16,3.16,0,0,1,1,3.42,6.35,6.35,0,0,1-3.41,3.75,14.2,14.2,0,0,1-14.87-.6c-2.14-1.35-3.92-1.57-6.07-.19a14.91,14.91,0,0,1-5.63,2c-7.42,1.22-13-3.13-14.16-11.44a25.52,25.52,0,0,1,6.34-21.16,13.25,13.25,0,0,1,15.88-3.36C303.34,156.21,304.71,157.39,304.64,159.63Zm0,.65a4.84,4.84,0,0,1-4.52.53,6.08,6.08,0,0,0-4.79.8c-5.85,3.41-9.08,14-6.16,20.07,1.45,3,4.32,4,7.39,2.52a10,10,0,0,0,5.45-7.47c.71-3.45,1.11-7,1.65-10.45C304,164.4,304.27,162.52,304.64,160.28Z"/><path class="cls-7" d="M386.71,152a5.08,5.08,0,1,1,5,4.9A4.87,4.87,0,0,1,386.71,152Zm1-1.35a4.2,4.2,0,0,0,4.18,5.41,4.25,4.25,0,1,0-4.18-5.41Z"/><path class="cls-8" d="M389.61,151.79c0-3.07.26-3.25,2.94-2.71a1.62,1.62,0,0,1,1.22,2.4c-.46.85.16,1.33.18,2,0,.37.23.87-.27,1s-.65-.31-.71-.7a1.25,1.25,0,0,0-1.46-1.25c-1,0-.68.78-.74,1.3s-.23.75-.73.7-.42-.44-.43-.75C389.6,153.11,389.61,152.45,389.61,151.79Zm3.26-.95c-.05-.75-.56-1-1.21-1s-.89.18-.88.78-.16,1.13.7,1.12C392.11,151.69,392.69,151.61,392.87,150.84Z"/></svg>