<?xml version="1.0" encoding="utf-8"?>
<!-- Generator: Adobe Illustrator 25.3.1, SVG Export Plug-In . SVG Version: 6.00 Build 0)  -->
<svg version="1.1" id="Layer_1" xmlns="http://www.w3.org/2000/svg" xmlns:xlink="http://www.w3.org/1999/xlink" x="0px" y="0px"
	 viewBox="0 0 773 687" style="enable-background:new 0 0 773 687;" xml:space="preserve">
<style type="text/css">
	.st0{clip-path:url(#SVGID_2_);}
	.st1{fill:#C1C4DE;}
	.st2{fill-opacity:0.8;}
	.st3{fill:none;}
	.st4{clip-path:url(#SVGID_4_);}
	.st5{clip-path:url(#SVGID_6_);}
	.st6{clip-path:url(#SVGID_8_);}
	.st7{stroke:#FFFFFF;stroke-width:45;}
	.st8{fill:#FFFFFF;}
</style>
<g>
	<defs>
		<rect id="SVGID_1_" x="324" y="2" width="310" height="375"/>
	</defs>
	<clipPath id="SVGID_2_">
		<use xlink:href="#SVGID_1_"  style="overflow:visible;"/>
	</clipPath>
	<g class="st0">
		<path class="st1" d="M344,2h270c11,0,20,9,20,20v335c0,11-9,20-20,20H344c-11,0-20-9-20-20V22C324,11,333,2,344,2z"/>
		<g>
			<path class="st2" d="M554,352.5c0,4.1-38.5,7.5-86,7.5s-86-3.4-86-7.5s38.5-7.5,86-7.5S554,348.4,554,352.5z"/>
			<path class="st2" d="M576,352.5c0,4.1-38.5,7.5-86,7.5s-86-3.4-86-7.5s38.5-7.5,86-7.5S576,348.4,576,352.5z"/>
		</g>
		<rect x="335" y="2" class="st3" width="296" height="358"/>
	</g>
</g>
<g>
	<defs>
		<rect id="SVGID_3_" y="391" width="634" height="296"/>
	</defs>
	<clipPath id="SVGID_4_">
		<use xlink:href="#SVGID_3_"  style="overflow:visible;"/>
	</clipPath>
	<g class="st4">
		<path class="st1" d="M20,391h594c11,0,20,9,20,20v256c0,11-9,20-20,20H20c-11,0-20-9-20-20V411C0,400,9,391,20,391z"/>
		<g>
			<path class="st2" d="M323,657.5c0,4.1-38.5,7.5-86,7.5s-86-3.4-86-7.5s38.5-7.5,86-7.5S323,653.4,323,657.5z"/>
			<path class="st2" d="M345,657.5c0,4.1-38.5,7.5-86,7.5s-86-3.4-86-7.5s38.5-7.5,86-7.5S345,653.4,345,657.5z"/>
		</g>
		<rect x="82" y="392" class="st3" width="401" height="294"/>
	</g>
</g>
<g>
	<defs>
		<rect id="SVGID_5_" width="310" height="377"/>
	</defs>
	<clipPath id="SVGID_6_">
		<use xlink:href="#SVGID_5_"  style="overflow:visible;"/>
	</clipPath>
	<g class="st5">
		<g>
			<path d="M200.4,354.5c0,3-8.1,5.5-18.2,5.5c-10,0-18.2-2.5-18.2-5.5s8.1-5.5,18.2-5.5C192.2,349,200.4,351.5,200.4,354.5z"/>
			<path d="M205,354.5c0,3-8.1,5.5-18.2,5.5c-10,0-18.2-2.5-18.2-5.5s8.1-5.5,18.2-5.5C196.9,349,205,351.5,205,354.5z"/>
		</g>
		<path class="st1" d="M20,2h270c11,0,20,9,20,20v335c0,11-9,20-20,20H20c-11,0-20-9-20-20V22C0,11,9,2,20,2z"/>
		<g>
			<path d="M109.4,288.5c0,3-8.1,5.5-18.2,5.5c-10,0-18.2-2.5-18.2-5.5s8.1-5.5,18.2-5.5C101.2,283,109.4,285.5,109.4,288.5z"/>
			<path d="M114,288.5c0,3-8.1,5.5-18.2,5.5c-10,0-18.2-2.5-18.2-5.5s8.1-5.5,18.2-5.5C105.9,283,114,285.5,114,288.5z"/>
		</g>
		<rect x="35" class="st3" width="240" height="360"/>
	</g>
</g>
<g>
	<defs>
		<rect id="SVGID_7_" x="517.8" y="329" width="255.2" height="254"/>
	</defs>
	<clipPath id="SVGID_8_">
		<use xlink:href="#SVGID_7_"  style="overflow:visible;"/>
	</clipPath>
	<g class="st6">
		<circle class="st7" cx="644" cy="454" r="89.5"/>
		<path class="st8" d="M617.4,433.4c2.5,0.2,4.4,1,5.7,2.3c1.3,1.3,1.9,2.9,1.9,4.9c0,1.4-0.4,2.7-1.1,3.9c-0.7,1.2-1.8,2.1-3.2,2.8
			c-1.4,0.7-3.2,1-5.2,1c-1.8,0-3.5-0.3-5.2-0.8c-1.7-0.6-3-1.3-4.1-2.3l1.7-2.8c0.9,0.8,2,1.5,3.3,2c1.3,0.5,2.8,0.7,4.3,0.7
			c1.9,0,3.3-0.4,4.4-1.2c1.1-0.8,1.6-1.9,1.6-3.3s-0.5-2.5-1.5-3.2c-1-0.8-2.6-1.2-4.7-1.2h-2v-2.5l6.3-7.8h-12.1v-3.1H624v2.4
			L617.4,433.4z M638.6,448.3c-2,0-3.8-0.5-5.3-1.5c-1.5-1-2.7-2.5-3.6-4.5s-1.3-4.2-1.3-6.9s0.4-5,1.3-6.9s2.1-3.4,3.6-4.4
			c1.6-1,3.3-1.5,5.3-1.5c2,0,3.7,0.5,5.3,1.5c1.6,1,2.8,2.5,3.7,4.4s1.3,4.2,1.3,6.9s-0.4,5-1.3,6.9s-2.1,3.4-3.7,4.5
			C642.4,447.8,640.6,448.3,638.6,448.3z M638.6,445.1c2,0,3.6-0.8,4.8-2.5c1.2-1.7,1.8-4.1,1.8-7.2c0-3.1-0.6-5.5-1.8-7.2
			c-1.2-1.7-2.8-2.5-4.8-2.5c-2,0-3.7,0.8-4.9,2.5c-1.2,1.7-1.8,4.1-1.8,7.2c0,3.1,0.6,5.5,1.8,7.2
			C635,444.3,636.6,445.1,638.6,445.1z M657.8,436.3c-1.8,0-3.2-0.6-4.2-1.9s-1.6-2.9-1.6-5c0-2,0.5-3.7,1.6-5s2.5-1.9,4.2-1.9
			c1.8,0,3.2,0.6,4.2,1.9c1.1,1.2,1.6,2.9,1.6,5s-0.5,3.7-1.6,5C661,435.7,659.6,436.3,657.8,436.3z M673,422.8h2.8L658.6,448h-2.8
			L673,422.8z M657.8,434.3c1.1,0,2-0.4,2.6-1.3c0.6-0.9,0.9-2.1,0.9-3.6s-0.3-2.7-0.9-3.5c-0.6-0.9-1.5-1.3-2.6-1.3
			c-1.1,0-1.9,0.4-2.6,1.3c-0.6,0.9-0.9,2-0.9,3.5s0.3,2.7,0.9,3.5C655.9,433.9,656.8,434.3,657.8,434.3z M673.8,448.2
			c-1.8,0-3.2-0.6-4.2-1.9c-1.1-1.3-1.6-2.9-1.6-5s0.5-3.7,1.6-5c1.1-1.3,2.5-1.9,4.2-1.9c1.8,0,3.2,0.6,4.2,1.9
			c1.1,1.3,1.6,2.9,1.6,5s-0.5,3.7-1.6,5C677,447.6,675.5,448.2,673.8,448.2z M673.8,446.2c1.1,0,1.9-0.4,2.6-1.3c0.6-0.9,1-2,1-3.5
			s-0.3-2.7-1-3.5c-0.6-0.9-1.5-1.3-2.6-1.3c-1.1,0-2,0.4-2.6,1.3c-0.6,0.8-0.9,2-0.9,3.5s0.3,2.7,0.9,3.6
			C671.8,445.7,672.7,446.2,673.8,446.2z M620.7,492.3c-2.5,0-4.8-0.6-6.9-1.7c-2-1.1-3.6-2.7-4.8-4.6c-1.2-2-1.7-4.2-1.7-6.6
			c0-2.4,0.6-4.6,1.7-6.6c1.2-2,2.8-3.5,4.8-4.6c2-1.1,4.3-1.7,6.9-1.7c2.5,0,4.8,0.6,6.8,1.7c2,1.1,3.6,2.6,4.8,4.6
			c1.2,1.9,1.7,4.1,1.7,6.6s-0.6,4.7-1.7,6.6c-1.2,1.9-2.7,3.5-4.8,4.6C625.5,491.7,623.2,492.3,620.7,492.3z M620.7,489.1
			c1.8,0,3.5-0.4,5-1.3c1.5-0.8,2.7-2,3.5-3.5c0.9-1.5,1.3-3.1,1.3-5s-0.4-3.5-1.3-4.9c-0.8-1.5-2-2.7-3.5-3.5
			c-1.5-0.8-3.1-1.3-5-1.3c-1.8,0-3.5,0.4-5,1.3c-1.5,0.8-2.7,2-3.5,3.5c-0.8,1.5-1.3,3.1-1.3,4.9s0.4,3.5,1.3,5
			c0.9,1.5,2,2.6,3.5,3.5C617.2,488.7,618.8,489.1,620.7,489.1z M643.1,469.9v8.8h12.6v3.1h-12.6V492h-3.6v-25.2h17.8v3.1H643.1z
			 M666,469.9v8.8h12.6v3.1H666V492h-3.6v-25.2h17.8v3.1H666z"/>
		<path d="M646.9,365.6v4.4h-1.8v-4.4l-5-8.2h1.9l4,6.6l4-6.6h1.8L646.9,365.6z"/>
		<path d="M662.9,371.9c-0.9-0.2-1.7-0.6-2.4-1.1c-0.7-0.6-1.1-1.2-1.4-2c-0.3-0.8-0.3-1.7-0.1-2.6c0.2-0.9,0.6-1.7,1.1-2.3
			c0.6-0.6,1.3-1.1,2.1-1.3c0.8-0.3,1.7-0.3,2.6-0.1c0.9,0.2,1.7,0.6,2.4,1.1c0.7,0.5,1.1,1.2,1.4,2c0.3,0.8,0.3,1.7,0.1,2.6
			c-0.2,0.9-0.6,1.7-1.1,2.3c-0.6,0.6-1.2,1.1-2.1,1.4C664.7,372,663.8,372.1,662.9,371.9z M663.2,370.4c0.6,0.1,1.2,0.1,1.7-0.1
			c0.5-0.2,1-0.5,1.4-0.9c0.4-0.5,0.6-1,0.8-1.6c0.1-0.6,0.1-1.2-0.1-1.8c-0.2-0.6-0.5-1-0.9-1.4c-0.4-0.4-0.9-0.6-1.5-0.7
			c-0.6-0.1-1.2-0.1-1.7,0.1c-0.5,0.2-1,0.5-1.4,0.9c-0.4,0.4-0.6,1-0.7,1.6c-0.1,0.6-0.1,1.3,0.1,1.8c0.2,0.6,0.5,1,0.9,1.4
			C662.1,370.1,662.6,370.3,663.2,370.4z"/>
		<path d="M687.3,369.8l-3.7,8.8l-1.5-0.6l0.6-1.3c-0.5,0.3-1.1,0.5-1.7,0.5c-0.6,0-1.2-0.1-1.9-0.3c-1.2-0.5-2-1.2-2.4-2.1
			c-0.4-0.9-0.3-2,0.2-3.3l2.1-5.1l1.6,0.7l-2,4.9c-0.4,0.9-0.4,1.6-0.2,2.2c0.2,0.6,0.7,1.1,1.5,1.4c0.8,0.3,1.6,0.4,2.3,0.1
			c0.7-0.3,1.2-0.9,1.6-1.9l1.9-4.6L687.3,369.8z"/>
		<path d="M707.2,395.8c-0.7-0.7-1.2-1.5-1.4-2.3c-0.2-0.8-0.2-1.7,0-2.5c0.2-0.8,0.7-1.6,1.3-2.2c0.7-0.7,1.4-1.1,2.2-1.3
			c0.8-0.2,1.7-0.2,2.5,0c0.8,0.2,1.6,0.7,2.3,1.4c0.6,0.6,1,1.3,1.3,2c0.2,0.7,0.3,1.5,0.1,2.2l-1.5-0.3c0.1-0.5,0.1-1-0.1-1.5
			s-0.4-0.9-0.8-1.3c-0.4-0.4-0.9-0.7-1.5-0.9c-0.5-0.2-1.1-0.1-1.7,0c-0.6,0.2-1.1,0.5-1.5,0.9c-0.5,0.5-0.8,1-1,1.6
			c-0.2,0.6-0.2,1.1,0,1.7c0.2,0.6,0.5,1,0.9,1.5c0.4,0.4,0.8,0.6,1.3,0.8c0.5,0.2,1,0.2,1.5,0.1l0.3,1.5c-0.7,0.2-1.5,0.2-2.2,0
			C708.5,396.9,707.8,396.4,707.2,395.8z"/>
		<path d="M725.4,402.7c0.7,1.1,1,2.1,0.9,3.1c-0.1,0.9-0.8,1.8-1.8,2.5l-4.8,3.2l-0.9-1.4l1-0.7c-0.5,0-1-0.1-1.5-0.5
			c-0.5-0.3-0.9-0.8-1.3-1.4c-0.6-0.9-0.9-1.7-0.8-2.6c0.1-0.8,0.5-1.5,1.2-1.9c0.7-0.5,1.4-0.6,2.2-0.4c0.8,0.2,1.5,0.9,2.3,2
			l1.5,2.3l0.3-0.2c0.6-0.4,1-0.9,1.1-1.5c0.1-0.6-0.1-1.2-0.6-1.9c-0.3-0.5-0.7-0.9-1.2-1.2c-0.5-0.3-0.9-0.6-1.4-0.7l0.7-1.3
			c0.6,0.2,1.2,0.5,1.7,1C724.5,401.5,725,402.1,725.4,402.7z M718.2,407.1c0.4,0.5,0.8,0.9,1.3,1.2c0.5,0.2,1.1,0.3,1.6,0.2
			l1.1-0.7l-1.5-2.2c-0.8-1.2-1.6-1.6-2.4-1c-0.4,0.3-0.6,0.6-0.6,1.1C717.6,406,717.8,406.5,718.2,407.1z"/>
		<path d="M734.8,420.6c0.5,1.1,0.5,2.1,0.1,3.1c-0.4,0.9-1.2,1.7-2.4,2.2l-5.1,2.1l-0.7-1.6l4.9-2c0.9-0.4,1.4-0.8,1.7-1.4
			c0.3-0.6,0.2-1.3-0.1-2c-0.4-0.9-0.9-1.4-1.6-1.7c-0.7-0.3-1.5-0.2-2.5,0.1l-4.5,1.9l-0.7-1.6l8.8-3.7l0.6,1.5l-1.3,0.6
			c0.6,0.1,1.1,0.4,1.6,0.9C734.2,419.3,734.5,419.9,734.8,420.6z"/>
		<path d="M741.5,461h-8.2c-1.7,0-2.9-0.4-3.7-1.2c-0.8-0.8-1.2-2.1-1.2-3.7c0-0.9,0.1-1.8,0.4-2.6c0.2-0.8,0.6-1.5,1-2l1.3,0.8
			c-0.4,0.4-0.7,1-0.9,1.6c-0.2,0.7-0.3,1.3-0.3,2c0,1.1,0.3,1.9,0.8,2.5c0.5,0.5,1.3,0.8,2.4,0.8h0.8c-0.5-0.4-0.9-0.9-1.1-1.5
			c-0.2-0.6-0.4-1.2-0.4-1.9c0-0.9,0.2-1.7,0.6-2.5c0.4-0.7,0.9-1.3,1.6-1.7c0.7-0.4,1.5-0.6,2.4-0.6c0.9,0,1.7,0.2,2.4,0.6
			c0.7,0.4,1.3,1,1.6,1.7c0.4,0.7,0.6,1.6,0.6,2.5c0,0.7-0.1,1.4-0.4,2c-0.3,0.6-0.7,1.1-1.2,1.5h1.5V461z M733.9,456.1
			c0,0.6,0.1,1.2,0.4,1.7c0.3,0.5,0.6,0.9,1.1,1.2c0.5,0.3,1,0.4,1.6,0.4c0.9,0,1.7-0.3,2.2-0.9c0.6-0.6,0.9-1.4,0.9-2.4
			c0-1-0.3-1.8-0.9-2.4c-0.6-0.6-1.3-0.9-2.2-0.9c-0.6,0-1.1,0.1-1.6,0.4c-0.5,0.3-0.8,0.7-1.1,1.2
			C734,454.9,733.9,455.4,733.9,456.1z"/>
		<path d="M733.9,478.9c-0.1,0-0.3-0.1-0.5-0.1l1.5-7.6c-0.8-0.1-1.6,0.2-2.2,0.7c-0.6,0.5-1,1.2-1.2,2.2c-0.2,1.1,0,2.1,0.6,2.9
			l-1.3,0.7c-0.4-0.5-0.7-1.1-0.8-1.8c-0.1-0.7-0.1-1.4,0-2.2c0.2-1,0.6-1.8,1.1-2.5c0.6-0.7,1.3-1.2,2.1-1.4
			c0.8-0.3,1.7-0.3,2.6-0.1c0.9,0.2,1.7,0.5,2.3,1.1c0.6,0.6,1.1,1.2,1.4,2c0.3,0.8,0.3,1.6,0.1,2.5c-0.2,0.9-0.5,1.6-1.1,2.3
			c-0.5,0.6-1.2,1.1-2,1.3C735.7,479.1,734.9,479.1,733.9,478.9z M738.2,475c0.2-0.8,0.1-1.5-0.3-2.2c-0.4-0.6-1-1.1-1.8-1.3l-1.2,6
			c0.8,0.1,1.5-0.1,2.1-0.6C737.7,476.4,738.1,475.8,738.2,475z"/>
		<path d="M724.5,492.7c-0.1-0.3-0.1-0.7-0.1-1.1c0-0.4,0.1-0.8,0.3-1.1c0.4-0.9,0.9-1.5,1.6-1.8c0.7-0.3,1.5-0.3,2.3,0.1l4.8,2
			l0.6-1.5l1.3,0.5l-0.6,1.5l1.9,0.8l-0.7,1.6l-1.9-0.8l-1,2.5l-1.3-0.5l1-2.5l-4.8-2c-0.5-0.2-0.9-0.2-1.2-0.1
			c-0.4,0.1-0.6,0.4-0.8,0.9c-0.2,0.5-0.2,1-0.1,1.4L724.5,492.7z"/>
		<path d="M704.5,519.9c0-0.3,0.1-0.7,0.3-1c0.2-0.3,0.4-0.7,0.7-0.9c0.7-0.7,1.4-1,2.1-1c0.7,0,1.4,0.3,2.1,1l3.7,3.7l1.1-1.1l1,1
			l-1.1,1.1l1.5,1.5l-1.2,1.2l-1.5-1.5l-1.9,1.9l-1-1l1.9-1.9l-3.7-3.7c-0.4-0.4-0.7-0.6-1.1-0.6c-0.4,0-0.7,0.2-1.1,0.5
			c-0.4,0.4-0.6,0.8-0.6,1.3L704.5,519.9z"/>
		<path d="M698.2,536.1c-1,0.7-2,0.9-3,0.7c-1-0.2-1.9-0.8-2.6-2l-3-4.6l1.4-1l2.9,4.4c0.5,0.8,1.1,1.2,1.7,1.4c0.6,0.1,1.3,0,2-0.5
			c0.8-0.5,1.2-1.2,1.4-1.9c0.1-0.7-0.1-1.5-0.6-2.4l-2.7-4.1l1.4-1l7.4,11.1l-1.4,1l-2.9-4.3c0,0.6-0.2,1.1-0.6,1.7
			C699.2,535.2,698.8,535.7,698.2,536.1z"/>
		<path d="M675.9,541.7c-0.1-0.1-0.1-0.3-0.2-0.5l7.2-3c-0.4-0.7-1-1.2-1.8-1.5c-0.8-0.2-1.6-0.2-2.5,0.2c-1.1,0.4-1.8,1.1-2.1,2.1
			l-1.3-0.7c0.2-0.6,0.6-1.2,1.1-1.7c0.5-0.5,1.1-0.9,1.8-1.2c0.9-0.4,1.8-0.5,2.7-0.5c0.9,0.1,1.7,0.4,2.3,0.9
			c0.7,0.5,1.2,1.2,1.5,2.1c0.4,0.9,0.5,1.7,0.4,2.5c-0.1,0.8-0.4,1.6-0.9,2.3c-0.5,0.7-1.2,1.2-2,1.5c-0.8,0.3-1.7,0.5-2.5,0.3
			c-0.8-0.1-1.6-0.4-2.2-1C676.7,543.3,676.2,542.6,675.9,541.7z M681.5,543.1c0.8-0.3,1.3-0.8,1.6-1.5c0.3-0.7,0.4-1.4,0.1-2.2
			l-5.7,2.3c0.4,0.7,1,1.2,1.7,1.4C680,543.5,680.8,543.4,681.5,543.1z"/>
		<path d="M646,541.9c0.9,0,1.8,0.2,2.6,0.6c0.8,0.4,1.4,1,1.8,1.7c0.4,0.7,0.6,1.6,0.6,2.5c0,0.9-0.2,1.8-0.6,2.5
			c-0.4,0.7-1,1.3-1.8,1.7c-0.8,0.4-1.6,0.6-2.6,0.6s-1.8-0.2-2.5-0.6c-0.8-0.4-1.3-1-1.8-1.7c-0.4-0.7-0.6-1.6-0.6-2.5
			c0-0.9,0.2-1.8,0.6-2.5c0.4-0.7,1-1.3,1.8-1.7C644.2,542.1,645,541.9,646,541.9z M646,543.4c-0.6,0-1.2,0.1-1.6,0.4
			c-0.5,0.3-0.9,0.7-1.2,1.2c-0.3,0.5-0.4,1.1-0.4,1.8c0,0.7,0.1,1.2,0.4,1.7c0.3,0.5,0.7,0.9,1.2,1.2c0.5,0.3,1,0.4,1.6,0.4
			s1.2-0.1,1.7-0.4c0.5-0.3,0.9-0.7,1.2-1.2c0.3-0.5,0.4-1.1,0.4-1.7c0-0.7-0.1-1.2-0.4-1.8c-0.3-0.5-0.7-0.9-1.2-1.2
			C647.2,543.5,646.6,543.4,646,543.4z"/>
		<path d="M624.5,551.5c1,0.2,1.6-0.2,1.8-1.3l0.2-0.8l-2.7-0.5l0.3-1.4l2.7,0.5l1.6-8l1.7,0.3l-1.6,8l1.6,0.3l-0.3,1.4l-1.6-0.3
			l-0.2,0.8c-0.2,0.9-0.6,1.6-1.3,2c-0.6,0.4-1.5,0.6-2.4,0.4c-0.4-0.1-0.7-0.2-1-0.4c-0.3-0.2-0.6-0.4-0.8-0.6l0.8-1.2
			C623.6,551.2,624,551.4,624.5,551.5z"/>
		<path d="M606.3,545.5c1,0.4,1.6,0.1,2.1-1l0.3-0.8l-2.6-1.1l0.5-1.3l2.5,1l3.1-7.5l1.6,0.7l-3.1,7.5l1.5,0.6l-0.5,1.3l-1.5-0.6
			l-0.3,0.8c-0.4,0.9-0.9,1.5-1.6,1.8s-1.5,0.3-2.5-0.1c-0.4-0.1-0.7-0.3-0.9-0.5c-0.3-0.2-0.5-0.5-0.6-0.7l1-1
			C605.5,545,605.8,545.3,606.3,545.5z"/>
		<path d="M591.4,528.3c0.1-0.1,0.2-0.2,0.3-0.4l6.4,4.3c0.4-0.8,0.4-1.5,0.2-2.3c-0.2-0.8-0.8-1.4-1.5-1.9
			c-0.9-0.6-1.9-0.8-2.9-0.6l-0.2-1.5c0.6-0.2,1.3-0.2,2-0.1c0.7,0.1,1.3,0.4,2,0.9c0.8,0.6,1.5,1.2,1.9,2c0.4,0.8,0.6,1.6,0.5,2.5
			c-0.1,0.9-0.4,1.7-0.9,2.4c-0.5,0.8-1.1,1.3-1.9,1.7c-0.8,0.4-1.6,0.5-2.4,0.5c-0.8-0.1-1.6-0.3-2.4-0.8c-0.8-0.5-1.3-1.1-1.7-1.9
			c-0.4-0.7-0.5-1.5-0.4-2.4C590.5,529.9,590.8,529.1,591.4,528.3z M593.4,533.8c0.7,0.5,1.4,0.6,2.2,0.5c0.7-0.1,1.4-0.5,1.9-1.1
			l-5.1-3.4c-0.4,0.7-0.5,1.4-0.3,2.2C592.2,532.8,592.7,533.4,593.4,533.8z"/>
		<path d="M579.7,522.2c-0.6,0.2-1.2,0.2-1.8-0.1c-0.6-0.2-1.2-0.6-1.8-1.2l1.2-1.2c0.1,0.1,0.1,0.2,0.3,0.3c0.7,0.7,1.4,1,2.2,1
			c0.8,0,1.5-0.4,2.2-1.1l3.4-3.4l1.2,1.2l-6.7,6.7l-1.2-1.2L579.7,522.2z"/>
		<path d="M554.7,491.1c0.4,1,1.1,1.2,2.1,0.8l0.8-0.3l-1.1-2.6l1.3-0.5l1,2.5l7.5-3.1l0.7,1.6l-7.5,3.1l0.6,1.5l-1.3,0.5l-0.6-1.5
			l-0.8,0.3c-0.9,0.4-1.7,0.4-2.4,0.1c-0.7-0.3-1.3-0.9-1.7-1.8c-0.1-0.4-0.2-0.7-0.3-1.1c0-0.3,0-0.7,0.1-1l1.4,0
			C554.5,490.2,554.5,490.6,554.7,491.1z"/>
		<path d="M554.1,474.1c-0.6-0.2-1.1-0.5-1.5-1.1c-0.4-0.5-0.7-1.2-0.8-2l1.6-0.3c0,0.1,0,0.2,0.1,0.4c0.2,0.9,0.6,1.6,1.3,2
			c0.6,0.4,1.5,0.5,2.5,0.3l4.7-0.9l0.3,1.7l-9.4,1.9l-0.3-1.6L554.1,474.1z"/>
		<path d="M560.1,456c0,0.9-0.2,1.8-0.6,2.6c-0.4,0.8-1,1.3-1.7,1.8c-0.7,0.4-1.6,0.6-2.5,0.6c-0.9,0-1.8-0.2-2.5-0.6
			c-0.7-0.4-1.3-1-1.7-1.8c-0.4-0.8-0.6-1.6-0.6-2.6c0-0.9,0.2-1.8,0.6-2.5c0.4-0.8,1-1.3,1.7-1.8c0.7-0.4,1.6-0.6,2.5-0.6
			c0.9,0,1.8,0.2,2.5,0.6c0.7,0.4,1.3,1,1.7,1.8C559.9,454.2,560.1,455,560.1,456z M558.6,456c0-0.6-0.1-1.2-0.4-1.6
			c-0.3-0.5-0.7-0.9-1.2-1.2c-0.5-0.3-1.1-0.4-1.8-0.4c-0.7,0-1.2,0.1-1.7,0.4c-0.5,0.3-0.9,0.7-1.2,1.2c-0.3,0.5-0.4,1-0.4,1.6
			s0.1,1.2,0.4,1.7c0.3,0.5,0.7,0.9,1.2,1.2c0.5,0.3,1.1,0.4,1.7,0.4c0.7,0,1.2-0.1,1.8-0.4c0.5-0.3,0.9-0.7,1.2-1.2
			C558.5,457.2,558.6,456.6,558.6,456z"/>
		<path d="M553.3,433.4c0.2-1.2,0.8-2,1.6-2.6c0.8-0.6,1.9-0.7,3.2-0.4l5.4,1.1l-0.3,1.7l-5.2-1c-0.9-0.2-1.6-0.1-2.2,0.2
			c-0.5,0.3-0.9,0.9-1,1.6c-0.2,0.9,0,1.6,0.4,2.2c0.4,0.6,1.1,1,2.1,1.2l4.8,1l-0.3,1.7l-5.2-1c-0.9-0.2-1.6-0.1-2.2,0.2
			c-0.5,0.3-0.9,0.9-1,1.6c-0.2,0.9,0,1.6,0.4,2.2c0.4,0.6,1.1,1,2.1,1.2l4.8,1l-0.3,1.7l-9.4-1.9l0.3-1.6l1.4,0.3
			c-0.4-0.4-0.7-1-0.8-1.6c-0.1-0.6-0.2-1.3,0-2c0.1-0.7,0.4-1.3,0.8-1.9c0.4-0.5,0.9-0.9,1.5-1c-0.5-0.5-0.8-1-1-1.7
			C553.1,434.9,553.1,434.2,553.3,433.4z"/>
		<path d="M567.6,396.3l10.5,7l-0.8,1.2l-12,1.1l7.8,5.2l-1,1.5l-10.5-7l0.8-1.2l12-1.1l-7.8-5.2L567.6,396.3z"/>
		<path d="M578.5,388.7l1.2-1.2l6.7,6.7l-1.2,1.2L578.5,388.7z M577.8,386.8c-0.2,0.2-0.5,0.4-0.8,0.4c-0.3,0-0.6-0.1-0.8-0.3
			c-0.2-0.2-0.3-0.5-0.3-0.8c0-0.3,0.1-0.6,0.4-0.8c0.2-0.2,0.5-0.4,0.8-0.4c0.3,0,0.6,0.1,0.8,0.3c0.2,0.2,0.3,0.5,0.3,0.8
			C578.2,386.3,578.1,386.6,577.8,386.8z"/>
		<path d="M596.3,380.7l-0.6,2.6l1.5,2.2l-1.4,1l-7.4-11.1l1.4-1l4.8,7.1l1.7-6.8l1.7-1.2l-1.1,5.5l6.8,2.2l-1.8,1.2L596.3,380.7z"
			/>
		<path d="M616.4,370.3c0,0.1,0.1,0.3,0.2,0.5l-7.2,3c0.4,0.7,1,1.2,1.8,1.5c0.8,0.2,1.6,0.2,2.5-0.2c1.1-0.4,1.8-1.1,2.1-2.1
			l1.3,0.7c-0.2,0.6-0.6,1.2-1.1,1.7c-0.5,0.5-1.1,0.9-1.8,1.2c-0.9,0.4-1.8,0.5-2.7,0.5c-0.9-0.1-1.7-0.4-2.3-0.9
			c-0.7-0.5-1.2-1.2-1.5-2.1c-0.4-0.9-0.5-1.7-0.4-2.5c0.1-0.8,0.4-1.6,0.9-2.3c0.5-0.7,1.2-1.2,2-1.5c0.8-0.3,1.7-0.5,2.5-0.3
			c0.8,0.1,1.6,0.4,2.2,1C615.6,368.7,616.1,369.4,616.4,370.3z M610.8,368.9c-0.8,0.3-1.3,0.8-1.6,1.5c-0.3,0.7-0.4,1.4-0.1,2.2
			l5.7-2.3c-0.4-0.7-1-1.2-1.7-1.4C612.3,368.5,611.5,368.6,610.8,368.9z"/>
	</g>
</g>
<image style="overflow:visible;" width="706" height="625" xlink:href="63B794B0ED222E1A.jpg"  transform="matrix(1.0962 0 0 1.0962 0 1.845)">
</image>
</svg>
