<svg id="Layer_1" data-name="Layer 1" xmlns="http://www.w3.org/2000/svg" xmlns:xlink="http://www.w3.org/1999/xlink" viewBox="0 0 2000 2000"><defs><style>.cls-1{fill:#ef372b;}.cls-2{fill:#ea413d;}.cls-3{fill:#ea7171;}.cls-4{fill:#edc0c0;}.cls-5{fill:#fefcfc;}.cls-6{fill:#fefbfb;}</style></defs><rect class="cls-1" x="1.54" width="1996.9" height="2000"/><rect class="cls-1" x="1998.44" width="3.1" height="2000"/><path class="cls-2" d="M1531.19,103.56C685.54,103.56,0,756.07,0,1561a1392.14,1392.14,0,0,0,70.7,439H1998.44V172.68C1851.14,127.8,1694.14,103.56,1531.19,103.56Z"/><path class="cls-2" d="M2000,173.15l-1.56-.47V2000H2000Z"/><path class="cls-3" d="M2000,559.63l-1.56-.32V2000H2000Z"/><path class="cls-3" d="M1720.33,531.28c-761.46,0-1378.75,616.29-1378.75,1376.53q0,46.47,3.07,92.19H1998.44V559.31A1387,1387,0,0,0,1720.33,531.28Z"/><path class="cls-4" d="M1998.44,928.87a1064.61,1064.61,0,0,0-131.22-8.11c-588.52,0-1066.4,482-1073.27,1079.24H1998.44Z"/><image width="736" height="2400" transform="translate(246.25 153.58) scale(0.74)" xlink:href="../../pngegg%20(5).png"/><image width="806" height="2400" transform="translate(1102.8 178.14) scale(0.73)" xlink:href="../../pngegg%20(9).png"/><image width="1200" height="447" transform="translate(637.77 1970.34) rotate(-90) scale(1.62)" xlink:href="../../../../../../../../../../Volumes/M.3/GMAG/MUSIC%20INSIGHT%20Fender%20JAPAN%2020-10-23/OTHR%20MUSIC%20INSIGHT%20Fender%20JAPAN%2020-10-23%20/Fender%20Japan/Other/Fander/pngegg.png"/><path class="cls-5" d="M291.06,431.53c-.78,68-16,133.82-30.93,199.69-1,4.23-2,8.44-2.83,12.68-4.1,20.78.59,25.53,20.28,19.55,51.05-15.51,102.24-30.63,152.88-47.42,16.25-5.4,20.83.76,23.86,14.35,8.05,36.25-9.12,65.94-45.06,74.7-50.06,12.2-100.17,23.9-149.32,39.67a62.69,62.69,0,0,0-40.73,41.68c-51.58,170.19-122,333.1-194.27,495.24-15.17,34-77.4,48-107.42,24.93-11.16-8.59-12-19.35-6.17-31.43,21.79-45.18,43.26-90.52,65.32-135.57C26.24,1038.34,74.82,936.67,110,829.26c2.41-7.38,8.22-15.91.65-22.45-6.9-5.95-14,1.21-20.52,3.93-25.75,10.76-51.06,22.62-77,32.84-25.6,10.08-36,2.75-37.38-24.54-1.7-32.95,8.1-43.87,39.22-55.35,40.12-14.8,79-32.93,118.49-49.44,5.86-2.45,8.18-6.83,9.92-12.41,25.71-82.09,54.14-163.48,63.93-249.63,1.83-16.09,2.95-32.1-.45-48.1-6.1-28.71-21.26-42.18-50.73-41.53C102.63,363.77,53.67,382.3,7.43,407c-115.16,61.43-219.3,138.55-316.26,225.48-39.3,35.24-77.87,71.28-117.4,106.27-21.51,19-40.5,19.48-64.25,3.61a104,104,0,0,1-14.47-11.66c-33.25-32.1-33.84-56,1-85.91C-343.22,506.48-167.2,392.88,33,319.21,74.43,304,117.23,293.67,161.5,289.45c77-7.32,123.93,31.47,129.45,108.62C291.74,409.17,291.06,420.38,291.06,431.53Z"/><path class="cls-6" d="M536,827.89c-34.47-1.87-63-3.21-91.57-5.08-8.22-.54-16.28-.4-23.94,2.27-9,3.12-14.79,9.8-14.54,19.51.26,9.93,6.4,14.51,16.26,17.18,54,14.66,108.46,10.76,163,5.05,11.12-1.16,22.34-1.4,33.45-2.67,13-1.48,21.83,3.71,26.68,15.41,5.37,13,5.6,25.23-6.26,35.52-16.41,14.24-36.81,20.25-56.48,27.71-19.11,7.25-39.13,12.37-55.26,26-6.22,5.27-11.81,10.88-16.25,17.75-5.18,8-6.45,16-1,24.31,5.89,9,14.49,11,24.48,8.73,21.54-4.94,40.63-15.37,58.74-27.41,39.3-26.13,78.14-53,117.36-79.22,37.46-25.1,77.91-43.56,122.1-53.56,12.3-2.79,24.69-3.07,37.12-2.28,15.06,1,25.16,8.26,30.75,22.82,5,13,7.91,30.27,24.09,32.73,17.05,2.59,22.58-15.05,31.05-25.78,23.86-30.2,46.63-61.39,77.25-85.39,27.12-21.26,56.29-34.19,91.43-19.21,19.94,8.51,29.67,22.69,29.72,44.62.09,48-17.1,92.26-28.11,137.87-3.92,16.24-8.78,32.31-9.45,49.15-.88,22.26,3.32,26.58,25.12,26.46,6.84,0,13.83-1,20.47.16,12.68,2.15,21.85,10,24.71,22.41,3,13-5.16,21.62-16,26.31-34.73,15-70.54,17.12-104.25-.88-30.94-16.52-32.94-47.94-30.72-78.21,1.94-26.48,7.52-52.7,11.5-79,.47-3,1.17-6.08,1.51-9.15,1-8.84,1.62-18.37-7.46-23.16-9.91-5.22-16.82,2.78-22.13,9.12-31.52,37.62-59,78.23-86.61,118.7-14,20.58-29.13,40-49.49,55-30,22.08-63.81,12.09-75.25-23.34-9.83-30.45-2.68-60,2.86-89.91,2.12-11.45,13.23-25.5.65-34.38-13.57-9.56-25.86,3.63-36.62,11-60.48,41.32-123.37,79.21-180.18,125.81-28.76,23.59-61.16,37.6-99.59,34-55.75-5.29-87.16-59.57-63.71-110.66,8.92-19.44,22.89-35.25,37.23-50.81,3.93-4.27,11.44-7.48,8.27-15-2.89-6.88-10.47-5.93-16.35-6.65-32.28-3.93-63.79-10.58-92.3-27-20.79-11.94-36.42-28.29-39.37-53.31-3.67-31.16,11.89-55.29,44.82-69.39,37.34-16,77.08-19,117-19.24,62.16-.47,124.57,2.64,185-16.46,8.4-2.65,9.52,2.16,11.05,7.87,11.77,43.94-14,81.14-59.55,83.42C594.9,829.19,562.49,827.89,536,827.89Z"/><path class="cls-6" d="M1760.17,747.24c54.35,1.44,102.65-7.24,150.44-18.86,14.63-3.56,18.09.1,17.28,14.64-2.91,52.3-37.61,83.83-92.86,81.85-38.51-1.38-77-4.15-115.45-6.15a132.44,132.44,0,0,0-20.51.19c-11.39,1.21-20.94,6.05-21.85,18.78s7.63,18.61,19.06,21.36c37.49,9,75.27,16.42,113.64,20.77q24.09,2.73,48.07,6.34c11.8,1.77,21.33,7.28,25,19.42,3.82,12.8-1.32,23.19-10.53,31.73-15.12,14-34.08,20-53.66,24.24-18.53,4-36.23,10.11-50.15,23.17-11.58,10.87-21.5,23.94-12.47,40.93s25,16.12,40.84,12.24c17-4.18,32.75-11.8,47.39-21.26,70.46-45.53,128.6-103.21,172.93-174.54,14.55-23.41,21-47.16,16.66-75.65-5.46-35.93,1.73-70.52,28.51-98.19,11.32-11.7,24.66-20.19,41.55-14.82,17.36,5.53,27.07,18.27,30.28,36.6s-.42,36-3.65,53.49c-4.34,23.47,2,41.22,20.9,55.36,18.41,13.74,37.06,27.27,54.49,42.19,20.61,17.66,21,27.48,4.86,48.89-14.54,19.31-31.07,37.27-41.51,59.37-7.35,15.55-13.44,31.2,2.12,46,15.26,14.51,31.57,11.78,48.13,3.27,7.71-4,15-8.72,22.35-13.38,7.8-5,15.61-8,24.16-1.88,8.29,5.89,12.09,14.11,11.38,24.07-.81,11.33-6.1,20.66-13.3,29-34.44,39.94-92.37,51.72-140.7,30.59-39.41-17.23-54.35-43.59-45.36-80.48,5.65-23.16,17.45-43.63,28.51-64.41,15.06-28.27,14.53-35.89-3.89-47.33-19.84-12.33-30-9-47.24,17.93-28.5,44.44-56.93,88.71-96.22,125-60,55.48-128.42,91-212.16,91-30.61,0-57.57-9.5-78.17-33-24.73-28.23-23.39-65.65,2.88-92.23C1684.22,971,1699.18,962,1713.44,952c4.53-3.17,10.21-6.11,9.32-12.71-1-7.34-7.44-9.21-13.5-11-20.24-6-40.57-11.63-60.68-18a125.46,125.46,0,0,1-38-19.4c-39.11-29.42-39-79.45.51-108.68,29.57-21.87,64.47-28.39,99.87-32.36C1728.85,747.91,1747,747.9,1760.17,747.24Z"/><path class="cls-6" d="M1435.84,811.89c34.58-134.78,76.09-267,121.82-398,14.08-40.33,28.39-80.64,47.67-118.9,14.5-28.79,57.9-42.48,86.38-27.71,14.1,7.31,18.26,19.49,16.56,34.31-1.79,15.64-8.55,29.78-14.63,43.94a4364,4364,0,0,0-178.8,495.83c-12.2,41.63-23,83.61-26,127.15-.93,13.11-.5,26.15,2.36,38.84,5.76,25.54,24.74,36.62,50.54,29.3,10-2.84,19.51-7.84,29.1-12.17,11.23-5.06,21.53-5.17,30.81,4.11,9,9,13.32,19,9.26,31.88-5.21,16.64-17.18,27.28-31.75,34.79-46.95,24.24-93.92,22.44-138.22-5.54-19.89-12.57-36.48-14.57-56.43-1.8-15.7,10-33.84,15.62-52.33,18.67-69,11.41-121.28-29.06-131.66-106.35-9.86-73.45,8.91-140.57,58.89-196.71,39.1-43.92,96.39-55.14,147.64-31.22C1423.72,780.15,1436.49,791.05,1435.84,811.89Zm0,6.08c-15.41,11-29.07,8.33-42,4.95-16.37-4.27-30.88-.61-44.58,7.38-54.4,31.7-84.42,130.16-57.2,186.64,13.39,27.8,40.11,37,68.7,23.44,29.39-14,44.4-39.38,50.62-69.5,6.61-32.07,10.32-64.74,15.39-97.13C1429.5,856.28,1432.44,838.84,1435.84,818Z"/></svg>